<svg xmlns="http://www.w3.org/2000/svg" width="27" height="27" viewBox="0 0 27 27"
     class="css-1j8o68f">
    <defs id="SvgjsDefs5541">
        <linearGradient id="SvgjsLinearGradient5551">
            <stop id="SvgjsStop5552" stop-color="#02569b" offset="0"></stop>
            <stop id="SvgjsStop5553" stop-color="#37baf7" offset="1"></stop>
        </linearGradient>
    </defs>
    <g id="SvgjsG5543" featurekey="inlineSymbolFeature-0"
       transform="matrix(-0.2932293656204224,0,0,0.2932293656204224,27.42,-0.9383339839676168)"
       fill="url(#SvgjsLinearGradient5551)">
        <path xmlns="http://www.w3.org/2000/svg"
              d="M83.5,3.2c-11.2,0-22.3,0-33.5,0c0,0,0,0,0,0c-11.2,0-22.5,0-33.7,0c-6,0-10.6,4.5-10.6,10.4c0,18.6,0,37.1,0,55.7  c0,1.1,0.2,2.2,0.5,3.2c1.3,4.4,5.2,7.3,9.8,7.3c2.6,0,5.2,0,7.8,0c1.4,3.1,3.4,6,5.9,8.5c5.4,5.4,12.6,8.4,20.3,8.4  s14.9-3,20.3-8.4c2.5-2.5,4.5-5.4,5.9-8.5c2.4,0,4.8,0,7.2,0c1.7,0,3.4-0.2,4.9-1c3.9-2,5.9-5.2,5.9-9.6c0-18.4,0-36.9,0-55.3  C94.2,7.7,89.8,3.2,83.5,3.2z M82.5,8.6c1.9,0,3.4,1.5,3.4,3.4s-1.5,3.4-3.4,3.4c-1.9,0-3.4-1.5-3.4-3.4S80.6,8.6,82.5,8.6z   M70.7,8.6c1.9,0,3.4,1.5,3.4,3.4s-1.5,3.4-3.4,3.4c-1.9,0-3.4-1.5-3.4-3.4S68.9,8.6,70.7,8.6z M59,8.6c1.9,0,3.4,1.5,3.4,3.4  s-1.5,3.4-3.4,3.4c-1.9,0-3.4-1.5-3.4-3.4S57.1,8.6,59,8.6z M27,68.1c0-2,0.3-4.1,0.8-6h8.4c-0.3,2.1-0.4,4.2-0.4,6.3  c0,1.9,0.1,3.8,0.3,5.7c-2.8,0-5.6,0-8.3,0C27.3,72.1,27,70.1,27,68.1z M41.5,68.4c0-2.1,0.2-4.2,0.5-6.3h16  c0.3,1.9,0.4,3.8,0.4,5.7c0,2.1-0.2,4.2-0.5,6.3c-5.4,0-10.7,0-16.1,0C41.6,72.2,41.5,70.2,41.5,68.4z M43.2,56.3  c1.2-4,2.9-7.7,5.2-11.2c1.1-0.1,2.2-0.1,3.3,0c2.2,3.5,3.9,7.2,5,11.2H43.2z M59.4,47.1c4.3,1.9,8,5.2,10.4,9.3h-7.1  C61.9,53.1,60.8,50,59.4,47.1z M63.7,62h8.5c0.5,2,0.8,4,0.8,6c0,2-0.3,4-0.8,6c-2.8,0-5.7,0-8.5,0c0.3-2.1,0.4-4.2,0.4-6.3  C64.1,65.8,64,63.9,63.7,62z M37.3,56.3h-7.1c2.5-4.1,6.2-7.4,10.6-9.3C39.3,50,38.1,53.1,37.3,56.3z M30.3,79.8c0.2,0,0.5,0,0.7,0  c2.1,0,4.1,0,6.2,0c0.8,3.2,1.9,6.2,3.3,9.1C36.2,87,32.6,83.8,30.3,79.8z M48.1,91c-2.2-3.5-3.9-7.2-5-11.1c4.5,0,9,0,13.6,0  c-1.2,4-2.9,7.7-5.2,11.2C50.2,91.1,49.2,91.1,48.1,91z M59,89.2c1.5-3,2.7-6.1,3.5-9.4c2.4,0,4.8,0,7.2,0  C67.2,84,63.5,87.3,59,89.2z M88.4,21.9c0,15.8,0,31.6,0,47.4c0,2.9-1.9,4.8-4.8,4.8c-1.8,0-3.7,0-5.5,0c0.4-1.9,0.6-3.9,0.6-6  c0-7.7-3-14.9-8.4-20.3c-5.4-5.4-12.6-8.4-20.3-8.4s-14.9,3-20.3,8.4c-5.4,5.4-8.4,12.6-8.4,20.3c0,2,0.2,4,0.6,6  c-1.8,0-3.6,0-5.5,0c-3,0-4.8-1.8-4.8-4.8c0-15.8,0-31.6,0-47.5c0-0.3,0-0.5,0-0.9c25.6,0,51.1,0,76.7,0  C88.4,21.2,88.4,21.6,88.4,21.9z"></path>
    </g>
</svg>
