<svg xmlns="http://www.w3.org/2000/svg" width="380" height="27" viewBox="0 0 380 27"
     class="css-1j8o68f">
    <defs id="SvgjsDefs5541">
        <linearGradient id="SvgjsLinearGradient5548">
            <stop id="SvgjsStop5549" stop-color="#02569b" offset="0"></stop>
            <stop id="SvgjsStop5550" stop-color="#37baf7" offset="1"></stop>
        </linearGradient>
        <linearGradient id="SvgjsLinearGradient5551">
            <stop id="SvgjsStop5552" stop-color="#02569b" offset="0"></stop>
            <stop id="SvgjsStop5553" stop-color="#37baf7" offset="1"></stop>
        </linearGradient>
        <linearGradient id="SvgjsLinearGradient5554">
            <stop id="SvgjsStop5555" stop-color="#02569b" offset="0"></stop>
            <stop id="SvgjsStop5556" stop-color="#37baf7" offset="1"></stop>
        </linearGradient>
    </defs>
    <g id="SvgjsG5542" featurekey="nameLeftFeature-0"
       transform="matrix(0.46044846237122067,0,0,0.46044846237122067,-1.4734354308822042,2.7952789038905257)"
       fill="url(#SvgjsLinearGradient5548)">
        <path d="M27.08 20.44 c0.32 0 1.12 0.16 1.12 1.4 l0 3.16 c0 1.24 -0.8 1.36 -1.12 1.36 l-17.88 0 c-0.04 0 -0.08 12.28 -0.08 12.28 c0 1.24 -0.8 1.4 -1.12 1.4 l-3.68 0 c-0.32 0 -1.12 -0.16 -1.12 -1.4 l0.08 -15.44 c0.08 -0.36 0.24 -0.72 0.4 -1.04 c0.6 -0.96 1.6 -1.6 2.76 -1.68 z M27.28 7.039999999999999 c0.32 0 1.12 0.12 1.12 1.4 l0 3.16 c0 1.24 -0.8 1.36 -1.12 1.36 l-23 0 c-0.32 0 -1.08 -0.16 -1.08 -1.4 l0 -3.08 c0 -1.28 0.76 -1.44 1.08 -1.44 l23 0 z M61.009 34.08 c0.36 0 1.12 0.16 1.12 1.4 l0 3.16 c0 1.24 -0.76 1.4 -1.12 1.4 l-13.2 0 c-1.76 0 -3.28 -0.24 -4.48 -0.68 c-1.28 -0.44 -2.32 -1.2 -3.12 -2.24 c-0.8 -1 -1.36 -2.32 -1.72 -3.92 c-0.36 -1.56 -0.56 -3.48 -0.56 -5.72 l0 -19.04 c0 -1.28 0.8 -1.4 1.16 -1.4 l3.68 0 c0.32 0 1.12 0.12 1.12 1.4 l0 19.72 c0 1.2 0.04 2.2 0.2 3 c0.12 0.72 0.36 1.32 0.68 1.76 c0.28 0.44 0.68 0.72 1.16 0.88 c0.56 0.2 1.24 0.28 2.08 0.28 l13 0 z M99.298 7.039999999999999 c0.36 0 1.12 0.12 1.12 1.36 l0 19.08 c0 2.24 -0.16 4.16 -0.52 5.72 c-0.36 1.6 -0.92 2.92 -1.72 3.92 c-0.8 1.04 -1.84 1.76 -3.12 2.24 c-1.24 0.44 -2.76 0.64 -4.52 0.64 l-9 0 c-1.76 0 -3.28 -0.2 -4.52 -0.64 c-1.24 -0.48 -2.32 -1.2 -3.08 -2.24 c-0.8 -1 -1.4 -2.32 -1.76 -3.92 c-0.36 -1.56 -0.52 -3.48 -0.52 -5.72 l0 -19.08 c0 -1.24 0.8 -1.36 1.16 -1.36 l3.64 0 c0.36 0 1.12 0.12 1.12 1.36 l0 19.72 c0 1.2 0.08 2.24 0.2 3 c0.16 0.76 0.4 1.36 0.68 1.8 c0.32 0.4 0.68 0.68 1.2 0.88 c0.52 0.16 1.24 0.28 2.08 0.28 l8.64 0 c0.84 0 1.56 -0.12 2.08 -0.28 c0.52 -0.2 0.88 -0.48 1.2 -0.88 c0.28 -0.44 0.52 -1.04 0.64 -1.8 s0.2 -1.8 0.2 -3 l0 -19.72 c0 -1.24 0.76 -1.36 1.12 -1.36 l3.68 0 z M137.587 7.039999999999999 c0.36 0 1.16 0.12 1.16 1.36 l0 3.12 c0 1.32 -0.8 1.44 -1.16 1.44 l-10.28 0 l0 25.68 c0 1.24 -0.76 1.36 -1.12 1.36 l-3.68 0 c-0.32 0 -1.12 -0.12 -1.12 -1.36 l0 -25.68 l-10.28 0 c-0.36 0 -1.16 -0.12 -1.16 -1.44 l0 -3.12 c0 -1.24 0.8 -1.36 1.16 -1.36 l26.48 0 z M175.916 7.039999999999999 c0.36 0 1.16 0.12 1.16 1.36 l0 3.12 c0 1.32 -0.8 1.44 -1.16 1.44 l-10.28 0 l0 25.68 c0 1.24 -0.76 1.36 -1.12 1.36 l-3.68 0 c-0.32 0 -1.12 -0.12 -1.12 -1.36 l0 -25.68 l-10.28 0 c-0.36 0 -1.16 -0.12 -1.16 -1.44 l0 -3.12 c0 -1.24 0.8 -1.36 1.16 -1.36 l26.48 0 z M210.645 32.84 c0.36 0 1.16 0.12 1.16 1.36 l0 4.4 c0 1.24 -0.8 1.36 -1.16 1.36 l-14.2 0 c-1.76 0 -3.24 -0.2 -4.48 -0.68 c-1.28 -0.44 -2.32 -1.16 -3.12 -2.2 c-0.76 -1 -1.36 -2.32 -1.72 -3.92 c-0.28 -1.32 -0.48 -2.92 -0.52 -4.8 l0 -0.2 l0.08 -5.04 c0.08 -0.36 0.24 -0.68 0.44 -1 c0.56 -1 1.56 -1.6 2.72 -1.68 l20.64 -0.04 c0.32 0 1.12 0.12 1.12 1.36 l0 3.16 c0 1.24 -0.8 1.4 -1.12 1.4 l-17.88 0 c-0.04 0 -0.08 2.88 -0.08 2.88 l0.08 0.68 c0.12 0.76 0.36 1.36 0.68 1.8 c0.32 0.4 0.68 0.68 1.2 0.88 c0.56 0.16 1.24 0.28 2.08 0.28 l14.08 0 z M210.685 6.960000000000001 c0.32 0 1.12 0.16 1.12 1.4 l0 3.16 c0 1.24 -0.8 1.4 -1.12 1.4 l-23 -0.04 c-0.32 0 -1.08 -0.12 -1.08 -1.36 l0 -3.12 c0 -1.28 0.76 -1.44 1.08 -1.44 l23 0 z M249.37400000000002 38.28 c0.16 0.24 0.2 0.56 0.16 0.96 c-0.08 0.48 -0.44 0.8 -0.92 0.8 l-4.4 0 c-0.36 0 -0.64 -0.08 -0.84 -0.24 c-0.16 -0.12 -0.28 -0.32 -0.44 -0.56 l-7.24 -12.84 l-8.44 0 l0 12.24 c0 1.24 -0.76 1.4 -1.12 1.4 l-3.64 0 c-0.36 0 -1.16 -0.16 -1.16 -1.4 l0 -16.8 c0 -1.24 0.8 -1.36 1.16 -1.36 l17.4 0 c1.04 0 1.72 -0.28 2.12 -0.88 c0.44 -0.6 0.64 -1.56 0.64 -2.88 s-0.2 -2.28 -0.64 -2.88 c-0.4 -0.6 -1.08 -0.88 -2.12 -0.88 l-17.4 0 c-0.36 0 -1.16 -0.12 -1.16 -1.36 l0 -3.16 c0 -1.28 0.8 -1.4 1.16 -1.4 l18.44 0 c2.72 0 4.72 0.84 5.92 2.56 c1.08 1.64 1.68 3.96 1.76 7 l0 0.24 c-0.08 3.08 -0.68 5.4 -1.76 7 c-1 1.36 -2.52 2.2 -4.48 2.44 z"></path>
    </g>
    <g id="SvgjsG5543" featurekey="inlineSymbolFeature-0"
       transform="matrix(-0.2932293656204224,0,0,0.2932293656204224,160.62220814303194,-0.9383339839676168)"
       fill="url(#SvgjsLinearGradient5551)">
        <path xmlns="http://www.w3.org/2000/svg"
              d="M83.5,3.2c-11.2,0-22.3,0-33.5,0c0,0,0,0,0,0c-11.2,0-22.5,0-33.7,0c-6,0-10.6,4.5-10.6,10.4c0,18.6,0,37.1,0,55.7  c0,1.1,0.2,2.2,0.5,3.2c1.3,4.4,5.2,7.3,9.8,7.3c2.6,0,5.2,0,7.8,0c1.4,3.1,3.4,6,5.9,8.5c5.4,5.4,12.6,8.4,20.3,8.4  s14.9-3,20.3-8.4c2.5-2.5,4.5-5.4,5.9-8.5c2.4,0,4.8,0,7.2,0c1.7,0,3.4-0.2,4.9-1c3.9-2,5.9-5.2,5.9-9.6c0-18.4,0-36.9,0-55.3  C94.2,7.7,89.8,3.2,83.5,3.2z M82.5,8.6c1.9,0,3.4,1.5,3.4,3.4s-1.5,3.4-3.4,3.4c-1.9,0-3.4-1.5-3.4-3.4S80.6,8.6,82.5,8.6z   M70.7,8.6c1.9,0,3.4,1.5,3.4,3.4s-1.5,3.4-3.4,3.4c-1.9,0-3.4-1.5-3.4-3.4S68.9,8.6,70.7,8.6z M59,8.6c1.9,0,3.4,1.5,3.4,3.4  s-1.5,3.4-3.4,3.4c-1.9,0-3.4-1.5-3.4-3.4S57.1,8.6,59,8.6z M27,68.1c0-2,0.3-4.1,0.8-6h8.4c-0.3,2.1-0.4,4.2-0.4,6.3  c0,1.9,0.1,3.8,0.3,5.7c-2.8,0-5.6,0-8.3,0C27.3,72.1,27,70.1,27,68.1z M41.5,68.4c0-2.1,0.2-4.2,0.5-6.3h16  c0.3,1.9,0.4,3.8,0.4,5.7c0,2.1-0.2,4.2-0.5,6.3c-5.4,0-10.7,0-16.1,0C41.6,72.2,41.5,70.2,41.5,68.4z M43.2,56.3  c1.2-4,2.9-7.7,5.2-11.2c1.1-0.1,2.2-0.1,3.3,0c2.2,3.5,3.9,7.2,5,11.2H43.2z M59.4,47.1c4.3,1.9,8,5.2,10.4,9.3h-7.1  C61.9,53.1,60.8,50,59.4,47.1z M63.7,62h8.5c0.5,2,0.8,4,0.8,6c0,2-0.3,4-0.8,6c-2.8,0-5.7,0-8.5,0c0.3-2.1,0.4-4.2,0.4-6.3  C64.1,65.8,64,63.9,63.7,62z M37.3,56.3h-7.1c2.5-4.1,6.2-7.4,10.6-9.3C39.3,50,38.1,53.1,37.3,56.3z M30.3,79.8c0.2,0,0.5,0,0.7,0  c2.1,0,4.1,0,6.2,0c0.8,3.2,1.9,6.2,3.3,9.1C36.2,87,32.6,83.8,30.3,79.8z M48.1,91c-2.2-3.5-3.9-7.2-5-11.1c4.5,0,9,0,13.6,0  c-1.2,4-2.9,7.7-5.2,11.2C50.2,91.1,49.2,91.1,48.1,91z M59,89.2c1.5-3,2.7-6.1,3.5-9.4c2.4,0,4.8,0,7.2,0  C67.2,84,63.5,87.3,59,89.2z M88.4,21.9c0,15.8,0,31.6,0,47.4c0,2.9-1.9,4.8-4.8,4.8c-1.8,0-3.7,0-5.5,0c0.4-1.9,0.6-3.9,0.6-6  c0-7.7-3-14.9-8.4-20.3c-5.4-5.4-12.6-8.4-20.3-8.4s-14.9,3-20.3,8.4c-5.4,5.4-8.4,12.6-8.4,20.3c0,2,0.2,4,0.6,6  c-1.8,0-3.6,0-5.5,0c-3,0-4.8-1.8-4.8-4.8c0-15.8,0-31.6,0-47.5c0-0.3,0-0.5,0-0.9c25.6,0,51.1,0,76.7,0  C88.4,21.2,88.4,21.6,88.4,21.9z"></path>
    </g>
    <g id="SvgjsG5544" featurekey="nameRightFeature-0"
       transform="matrix(0.45494731802837063,0,0,0.45494731802837063,166.7669233287892,3.015545619766183)"
       fill="url(#SvgjsLinearGradient5554)">
        <path d="M31.689 7.039999999999999 c0.32 0 1.12 0.16 1.12 1.4 l0 30.2 c0 1.24 -0.8 1.4 -1.12 1.4 l-3.68 0 c-0.32 0 -1.12 -0.16 -1.12 -1.4 l0 -30.2 c0 -1.24 0.8 -1.4 1.12 -1.4 l3.68 0 z M70.658 7.039999999999999 c0.32 0 1.12 0.12 1.12 1.4 l0 26.44 c0 1.96 -0.28 3.28 -0.84 4 c-0.56 0.76 -1.44 1.16 -2.6 1.16 l-2.92 0 c-0.56 0 -1 -0.04 -1.36 -0.12 c-0.4 -0.08 -0.76 -0.2 -1.08 -0.44 c-0.32 -0.2 -0.6 -0.48 -0.88 -0.88 c-0.28 -0.36 -0.6 -0.84 -0.92 -1.48 l-12.68 -22.48 c-0.08 -0.12 -0.12 -0.12 -0.12 -0.12 l-0.2 0 l0 24.12 c0 1.24 -0.76 1.4 -1.12 1.4 l-3.56 0 c-0.36 0 -1.16 -0.16 -1.16 -1.4 l0 -26.44 c0 -1.96 0.28 -3.28 0.84 -4.04 c0.56 -0.72 1.44 -1.12 2.6 -1.12 l3 0 c0.52 0 1 0.04 1.4 0.08 c0.44 0.08 0.8 0.24 1.12 0.48 c0.28 0.2 0.56 0.52 0.84 0.92 c0.28 0.36 0.56 0.84 0.88 1.44 l12.64 22.48 c0.04 0.12 0.08 0.12 0.12 0.12 l0.2 0 l0 -24.12 c0 -1.28 0.76 -1.4 1.12 -1.4 l3.56 0 z M102.747 10.760000000000002 l11.24 27.72 c0.16 0.36 0.2 0.72 0.12 0.96 c-0.08 0.2 -0.24 0.6 -0.88 0.6 l-4.28 0 c-0.56 0 -0.96 -0.32 -1.16 -0.88 l-9.92 -24.76 l-0.04 -0.08 l-0.16 0 s-0.04 0.04 -0.08 0.12 l-5.12 12.96 l4.96 0 c0.52 0 0.96 0.32 1.16 0.8 l1.44 3.56 c0.12 0.4 0.08 0.84 -0.16 1.16 c-0.2 0.36 -0.6 0.56 -1.04 0.56 l-8.76 0 l-2.28 5.72 c-0.2 0.52 -0.6 0.84 -1.12 0.84 l-4.4 0 c-0.64 0 -0.84 -0.36 -0.88 -0.6 c-0.08 -0.24 -0.04 -0.6 0.08 -0.96 l11.16 -27.72 c0.56 -1.44 1.16 -2.4 1.76 -2.92 c0.16 -0.12 0.36 -0.28 0.6 -0.4 c0.8 -0.56 1.76 -0.84 2.76 -0.84 c2.2 0 4.12 1.48 4.76 3.56 z M143.316 7.039999999999999 c2.72 0 4.68 0.84 5.88 2.56 c1.16 1.6 1.72 3.92 1.76 7 c0 3.16 -0.56 5.56 -1.76 7.24 s-3.16 2.52 -5.88 2.52 l-13.68 0.04 l0 12.24 c0 1.24 -0.8 1.4 -1.12 1.4 l-3.68 0 c-0.32 0 -1.12 -0.16 -1.12 -1.4 l0 -16.8 c0 -1.24 0.8 -1.36 1.12 -1.36 l17.44 0 c1 0 1.72 -0.28 2.12 -0.88 c0.44 -0.6 0.64 -1.56 0.64 -2.88 s-0.2 -2.28 -0.64 -2.88 c-0.4 -0.6 -1.12 -0.88 -2.12 -0.88 l-17.44 0 c-0.32 0 -1.12 -0.12 -1.12 -1.36 l0 -3.16 c0 -1.28 0.8 -1.4 1.12 -1.4 l18.48 0 z M180.085 7.039999999999999 c2.72 0 4.68 0.84 5.88 2.56 c1.16 1.6 1.72 3.92 1.76 7 c0 3.16 -0.56 5.56 -1.76 7.24 s-3.16 2.52 -5.88 2.52 l-13.68 0.04 l0 12.24 c0 1.24 -0.8 1.4 -1.12 1.4 l-3.68 0 c-0.32 0 -1.12 -0.16 -1.12 -1.4 l0 -16.8 c0 -1.24 0.8 -1.36 1.12 -1.36 l17.44 0 c1 0 1.72 -0.28 2.12 -0.88 c0.44 -0.6 0.64 -1.56 0.64 -2.88 s-0.2 -2.28 -0.64 -2.88 c-0.4 -0.6 -1.12 -0.88 -2.12 -0.88 l-17.44 0 c-0.32 0 -1.12 -0.12 -1.12 -1.36 l0 -3.16 c0 -1.28 0.8 -1.4 1.12 -1.4 l18.48 0 z M245.574 6.560000000000002 c0.64 0 0.84 0.36 0.88 0.6 c0.08 0.28 0.04 0.6 -0.08 0.96 l-8.92 27.68 c-0.6 1.48 -1.16 2.44 -1.76 2.96 c-0.16 0.12 -0.36 0.28 -0.6 0.4 c-0.8 0.56 -1.76 0.84 -2.76 0.84 c-2.2 0 -4.16 -1.48 -4.76 -3.56 l-0.28 -0.6 l-5.52 -18.44 l-5.92 18.4 c-0.6 1.48 -1.2 2.44 -1.76 2.96 c-0.2 0.12 -0.36 0.28 -0.6 0.4 c-0.8 0.56 -1.76 0.84 -2.76 0.84 c-2.2 0 -4.16 -1.48 -4.76 -3.56 l-0.28 -0.6 l-8.28 -27.72 c-0.16 -0.36 -0.16 -0.68 -0.08 -0.96 c0.04 -0.2 0.2 -0.6 0.84 -0.6 l4.28 0 c0.56 0 0.96 0.32 1.16 0.88 l7 24.04 c0 0.04 0.04 0.08 0.04 0.08 l0.16 -0.04 l0.04 -0.08 l7.56 -24 c0.24 -0.56 0.64 -0.88 1.16 -0.88 l4.52 0 c0.52 0 0.92 0.32 1.12 0.88 l7 24.04 c0 0.04 0.04 0.08 0.04 0.08 l0.16 -0.04 l0.04 -0.08 l7.56 -24 c0.24 -0.56 0.64 -0.88 1.16 -0.88 l4.4 0 z M280.103 32.84 c0.36 0 1.16 0.12 1.16 1.36 l0 4.4 c0 1.24 -0.8 1.36 -1.16 1.36 l-14.2 0 c-1.76 0 -3.24 -0.2 -4.48 -0.68 c-1.28 -0.44 -2.32 -1.16 -3.12 -2.2 c-0.76 -1 -1.36 -2.32 -1.72 -3.92 c-0.28 -1.32 -0.48 -2.92 -0.52 -4.8 l0 -0.2 l0.08 -5.04 c0.08 -0.36 0.24 -0.68 0.44 -1 c0.56 -1 1.56 -1.6 2.72 -1.68 l20.64 -0.04 c0.32 0 1.12 0.12 1.12 1.36 l0 3.16 c0 1.24 -0.8 1.4 -1.12 1.4 l-17.88 0 c-0.04 0 -0.08 2.88 -0.08 2.88 l0.08 0.68 c0.12 0.76 0.36 1.36 0.68 1.8 c0.32 0.4 0.68 0.68 1.2 0.88 c0.56 0.16 1.24 0.28 2.08 0.28 l14.08 0 z M280.14300000000003 6.960000000000001 c0.32 0 1.12 0.16 1.12 1.4 l0 3.16 c0 1.24 -0.8 1.4 -1.12 1.4 l-23 -0.04 c-0.32 0 -1.08 -0.12 -1.08 -1.36 l0 -3.12 c0 -1.28 0.76 -1.44 1.08 -1.44 l23 0 z M318.472 17.24 c0 2.48 -0.64 4.44 -2 5.8 c1.44 1.32 2.2 3.32 2.2 5.96 l0 2.68 c0 1.24 -0.12 2.4 -0.32 3.4 c-0.24 1.04 -0.56 1.92 -1.08 2.64 c-0.48 0.76 -1.16 1.32 -2 1.72 c-0.8 0.4 -1.8 0.6 -3 0.6 l-18 0 c-1.24 0 -2.4 -0.64 -3.04 -1.72 c-0.2 -0.36 -0.36 -0.8 -0.44 -1.24 l0.04 -27.32 c0.08 -0.32 0.24 -0.68 0.4 -1 c0.6 -0.96 1.6 -1.6 2.76 -1.68 l0 -0.04 l17.68 0 c2.44 0 4.2 0.68 5.24 2.04 c1.04 1.32 1.56 3.32 1.56 5.92 l0 2.24 z M296.67199999999997 33.88 c0 0.16 0.04 0.2 0.04 0.2 l13.92 0 c0.8 0 1.36 -0.16 1.68 -0.52 s0.48 -1 0.48 -1.92 l0 -2.72 c0 -0.88 -0.2 -1.52 -0.52 -1.92 c-0.36 -0.4 -1.04 -0.64 -2.08 -0.64 l-7.76 0 c-0.72 0 -1.32 -0.56 -1.32 -1.32 l0 -3.28 c0 -0.72 0.6 -1.32 1.32 -1.32 l7.76 0 c1.04 0 1.72 -0.2 2.04 -0.56 c0.36 -0.4 0.52 -1 0.52 -1.76 l0 -2.76 c0 -0.84 -0.16 -1.48 -0.48 -1.84 s-0.88 -0.56 -1.64 -0.56 l-13.88 0 c-0.04 0 -0.08 0.08 -0.08 0.24 l0 20.68 z M360.08099999999996 6.600000000000001 c0.6 0 0.8 0.36 0.88 0.56 c0.08 0.28 0.04 0.6 -0.12 1 l-11.12 27.68 c-0.6 1.44 -1.16 2.4 -1.76 2.92 c-0.16 0.16 -0.36 0.28 -0.6 0.4 c-0.8 0.56 -1.76 0.88 -2.76 0.88 c-2.2 0 -4.16 -1.48 -4.76 -3.6 l-0.28 -0.6 l-11.2 -27.68 c-0.16 -0.4 -0.2 -0.72 -0.12 -1 c0.04 -0.16 0.24 -0.56 0.84 -0.56 l4.32 0 c0.56 0 0.96 0.28 1.12 0.84 l9.96 24.76 c0.04 0.08 0.04 0.12 0.04 0.12 l0.16 -0.04 s0.04 0 0.04 -0.08 l9.8 -24.76 c0.24 -0.56 0.64 -0.84 1.16 -0.84 l4.4 0 z M375.33 7.039999999999999 c0.32 0 1.12 0.16 1.12 1.4 l0 30.2 c0 1.24 -0.8 1.4 -1.12 1.4 l-3.68 0 c-0.32 0 -1.12 -0.16 -1.12 -1.4 l0 -30.2 c0 -1.24 0.8 -1.4 1.12 -1.4 l3.68 0 z M410.019 32.84 c0.36 0 1.16 0.12 1.16 1.36 l0 4.4 c0 1.24 -0.8 1.36 -1.16 1.36 l-14.2 0 c-1.76 0 -3.24 -0.2 -4.48 -0.68 c-1.28 -0.44 -2.32 -1.16 -3.12 -2.2 c-0.76 -1 -1.36 -2.32 -1.72 -3.92 c-0.28 -1.32 -0.48 -2.92 -0.52 -4.8 l0 -0.2 l0.08 -5.04 c0.08 -0.36 0.24 -0.68 0.44 -1 c0.56 -1 1.56 -1.6 2.72 -1.68 l20.64 -0.04 c0.32 0 1.12 0.12 1.12 1.36 l0 3.16 c0 1.24 -0.8 1.4 -1.12 1.4 l-17.88 0 c-0.04 0 -0.08 2.88 -0.08 2.88 l0.08 0.68 c0.12 0.76 0.36 1.36 0.68 1.8 c0.32 0.4 0.68 0.68 1.2 0.88 c0.56 0.16 1.24 0.28 2.08 0.28 l14.08 0 z M410.05899999999997 6.960000000000001 c0.32 0 1.12 0.16 1.12 1.4 l0 3.16 c0 1.24 -0.8 1.4 -1.12 1.4 l-23 -0.04 c-0.32 0 -1.08 -0.12 -1.08 -1.36 l0 -3.12 c0 -1.28 0.76 -1.44 1.08 -1.44 l23 0 z M469.02799999999996 6.560000000000002 c0.64 0 0.84 0.36 0.88 0.6 c0.08 0.28 0.04 0.6 -0.08 0.96 l-8.92 27.68 c-0.6 1.48 -1.16 2.44 -1.76 2.96 c-0.16 0.12 -0.36 0.28 -0.6 0.4 c-0.8 0.56 -1.76 0.84 -2.76 0.84 c-2.2 0 -4.16 -1.48 -4.76 -3.56 l-0.28 -0.6 l-5.52 -18.44 l-5.92 18.4 c-0.6 1.48 -1.2 2.44 -1.76 2.96 c-0.2 0.12 -0.36 0.28 -0.6 0.4 c-0.8 0.56 -1.76 0.84 -2.76 0.84 c-2.2 0 -4.16 -1.48 -4.76 -3.56 l-0.28 -0.6 l-8.28 -27.72 c-0.16 -0.36 -0.16 -0.68 -0.08 -0.96 c0.04 -0.2 0.2 -0.6 0.84 -0.6 l4.28 0 c0.56 0 0.96 0.32 1.16 0.88 l7 24.04 c0 0.04 0.04 0.08 0.04 0.08 l0.16 -0.04 l0.04 -0.08 l7.56 -24 c0.24 -0.56 0.64 -0.88 1.16 -0.88 l4.52 0 c0.52 0 0.92 0.32 1.12 0.88 l7 24.04 c0 0.04 0.04 0.08 0.04 0.08 l0.16 -0.04 l0.04 -0.08 l7.56 -24 c0.24 -0.56 0.64 -0.88 1.16 -0.88 l4.4 0 z"></path>
    </g>
</svg>
